# xmcd
#
# Track frame offsets:
#	150
#	19690
#	39203
#	61269
#	80997
#	99590
#	120367
#	141095
#	170379
#	182835
#	201964
#	221863
#	240874
#
# Disc length: 3625 seconds
# Revision: 0
# Processed by: cddbd v1.5.2PL0 Copyright (c) Steve Scherf et al.
# Submitted via: dBpowerAMP V12.0
#
DISCID=ad0e270d
DTITLE=Woodbrain - Swimming in Turpentine
DYEAR=2009
DGENRE=Blues
TTITLE0=Port Chicago Highway
TTITLE1=Northbound
TTITLE2=Dig
TTITLE3=Shake 'em On Down
TTITLE4=Broken Window
TTITLE5=Home of My Own
TTITLE6=Good Man
TTITLE7=Storm Clouds
TTITLE8=Turpentine
TTITLE9=Hurricane Town
TTITLE10=Black Water Side
TTITLE11=Next Stop
TTITLE12=Pottsville Conglomerate
EXTD=
EXTT0=
EXTT1=
EXTT2=
EXTT3=
EXTT4=
EXTT5=
EXTT6=
EXTT7=
EXTT8=
EXTT9=
EXTT10=
EXTT11=
EXTT12=
PLAYORDER=
